<svg xmlns="http://www.w3.org/2000/svg" viewBox="0 0 17.738 22.798">
  <defs>
    <style>
      .cls-1 {
        fill: none;
        stroke: #ff7e82;
        stroke-width: 2px;
        fill-rule: evenodd;
      }
    </style>
  </defs>
  <g id="Clients" transform="translate(-274.445 -162.5)">
    <path id="Path_189" data-name="Path 189" class="cls-1" d="M49.089-624.642,46.3-628.46a5.167,5.167,0,0,0-2.286-1.745,4.607,4.607,0,0,0,2.673-4.175A4.62,4.62,0,0,0,42.063-639a4.618,4.618,0,0,0-4.619,4.619,4.6,4.6,0,0,0,2.673,4.175,5.172,5.172,0,0,0-2.288,1.745l-2.791,3.819a4.049,4.049,0,0,0,3.27,6.44h7.512a4.05,4.05,0,0,0,3.27-6.44" transform="translate(241.252 802.5)"/>
  </g>
</svg>
