<svg xmlns="http://www.w3.org/2000/svg" viewBox="0 0 26.689 17.842">
  <defs>
    <style>
      .cls-1 {
        fill: #ff7e82;
      }
    </style>
  </defs>
  <g id="Partners" transform="translate(-444 -165)">
    <path id="Path_123" data-name="Path 123" class="cls-1" d="M14.333,17.842a1.968,1.968,0,0,1-1.357-.531l-1.032-.944-.708.737a2.031,2.031,0,0,1-1.445.619,2.054,2.054,0,0,1-1.357-.531l-.206-.206a1.671,1.671,0,0,1-.354-.442,1.983,1.983,0,0,1-.708.118,2.055,2.055,0,0,1-1.357-.531L5.6,15.925a1.645,1.645,0,0,1-.413-.59,2.2,2.2,0,0,0-.442,0A2.192,2.192,0,0,1,3.362,14.8L3.156,14.6h0a2.031,2.031,0,0,1-.619-1.445,1.852,1.852,0,0,1,.088-.56,2.673,2.673,0,0,1-.472-.324l-.206-.206a2.031,2.031,0,0,1-.619-1.445,1.945,1.945,0,0,1,.56-1.357L2.654,8.4.678,6.724A1.936,1.936,0,0,1,.5,3.952L2.949,1.209A2.128,2.128,0,0,1,3.8.619a2.9,2.9,0,0,1,1-.206A2.4,2.4,0,0,1,5.721.59l1.327.56a1.843,1.843,0,0,0,.737.118,2.618,2.618,0,0,0,.767-.118L9.909.59A3.674,3.674,0,0,1,11.236.354a3.164,3.164,0,0,1,1.445.295l.59.295L13.33.914A2.792,2.792,0,0,1,14.981.442a2.571,2.571,0,0,1,1.18.265l1.976.944a1.146,1.146,0,0,0,.531.088h0a1.409,1.409,0,0,0,.737-.177L21.41.324A2.052,2.052,0,0,1,22.5,0a2.141,2.141,0,0,1,1.681.8l2.064,2.625a2.2,2.2,0,0,1,.442,1.357,2.18,2.18,0,0,1-.56,1.475l-3.244,3.6L23,9.968a1.86,1.86,0,0,1,.619,1.445,1.968,1.968,0,0,1-.531,1.357l-.177.206a2.212,2.212,0,0,1-.826.531V13.6a1.968,1.968,0,0,1-.531,1.357l-.206.206a1.965,1.965,0,0,1-1.445.619h-.118a2.128,2.128,0,0,1-.413.708l-.206.206a2,2,0,0,1-2.8.088l-.147-.088c-.059.088-.147.206-.206.295l-.206.236a2.154,2.154,0,0,1-1.475.619Zm-.265-1.71a.356.356,0,0,0,.265.088A.32.32,0,0,0,14.6,16.1L14.8,15.9a.3.3,0,0,0,.088-.236.268.268,0,0,0-.118-.236l-1.563-1.416-.265-.265,1.091-1.18.265.265,3.126,2.8a.325.325,0,0,0,.265.088.287.287,0,0,0,.265-.118l.206-.236a.3.3,0,0,0,.088-.236.32.32,0,0,0-.118-.265L14.8,11.8l1.091-1.18,3.745,3.45a.3.3,0,0,0,.236.088.287.287,0,0,0,.265-.118l.206-.206a.3.3,0,0,0,.088-.236.32.32,0,0,0-.118-.265L16.368,9.614l1.091-1.18,3.745,3.45a.3.3,0,0,0,.236.088.287.287,0,0,0,.265-.118l.206-.206A.3.3,0,0,0,22,11.413a.32.32,0,0,0-.118-.265L19.258,8.729a20.227,20.227,0,0,0-1.74-1.416L15.247,5.692a.977.977,0,0,0-.56-.147.953.953,0,0,0-.5.118l-.826.5a2.139,2.139,0,0,1-2.772-.531L10.41,5.4h0a1.993,1.993,0,0,1-.383-1.15,1.919,1.919,0,0,1,.826-1.593l.826-.59a2.292,2.292,0,0,0-.472-.059,2.358,2.358,0,0,0-.708.118l-1.268.531a3.418,3.418,0,0,1-1.386.265,3.321,3.321,0,0,1-1.386-.265l-1.386-.59a.7.7,0,0,0-.265-.059.908.908,0,0,0-.383.088,1.029,1.029,0,0,0-.265.177L1.71,5.013a.335.335,0,0,0-.088.236.411.411,0,0,0,.118.265l2.035,1.74L4.07,6.96a2.031,2.031,0,0,1,1.445-.619,2.054,2.054,0,0,1,1.357.531l.206.206a1.894,1.894,0,0,1,.56,1,1.975,1.975,0,0,1,1.18.531l.206.206a2.031,2.031,0,0,1,.619,1.445.817.817,0,0,1-.029.265,1.757,1.757,0,0,1,.619.413l.236.236.029.029a3.682,3.682,0,0,1,.5,1.032,2.078,2.078,0,0,1,1.15.531l.206.206a2.031,2.031,0,0,1,.619,1.445,1.54,1.54,0,0,1-.118.619Zm-3.244-2.271a.32.32,0,0,0-.265.118l-1.239,1.3a.3.3,0,0,0-.088.236.32.32,0,0,0,.118.265l.206.206a.325.325,0,0,0,.265.088.32.32,0,0,0,.265-.118l1.239-1.3a.325.325,0,0,0,.088-.265.411.411,0,0,0-.118-.265l-.206-.206A.861.861,0,0,0,10.823,13.861Zm-4.188.383a.281.281,0,0,0-.059.206.411.411,0,0,0,.118.265l.206.206a.325.325,0,0,0,.265.088.411.411,0,0,0,.265-.118l1.976-2.064a.325.325,0,0,0,.088-.265.32.32,0,0,0-.118-.265l-.206-.206A.325.325,0,0,0,8.906,12a.335.335,0,0,0-.236.088Zm-2.153-.619a.325.325,0,0,0,.265.088.411.411,0,0,0,.265-.118l2.949-3.067a.325.325,0,0,0,.088-.265A.411.411,0,0,0,7.933,10l-.206-.206A.325.325,0,0,0,7.461,9.7a.476.476,0,0,0-.265.088c-.088.088-.531.56-2.949,3.1a.3.3,0,0,0-.088.236.476.476,0,0,0,.088.265ZM5.515,7.963a.32.32,0,0,0-.265.118l-2.212,2.3a.353.353,0,0,0-.118.236.411.411,0,0,0,.118.265l.206.206a.325.325,0,0,0,.265.088.419.419,0,0,0,.177-.059C5.515,9.231,5.928,8.788,6.016,8.7a.419.419,0,0,0,.059-.177,1.335,1.335,0,0,0-.147-.295l-.177-.177A.3.3,0,0,0,5.515,7.963Zm9.2-4.04a2.435,2.435,0,0,1,1.534.472L18.52,6.016c.56.413,1.386,1.091,1.887,1.534l1.3,1.209L24.949,5.19a.583.583,0,0,0,.147-.413.47.47,0,0,0-.118-.354L22.915,1.8a.5.5,0,0,0-.413-.177.556.556,0,0,0-.236.059L20.26,2.92a3.044,3.044,0,0,1-1.593.413A2.958,2.958,0,0,1,17.4,3.067l-1.976-.944a.954.954,0,0,0-.472-.088h0a1.5,1.5,0,0,0-.737.177L11.8,3.922a.35.35,0,0,0-.147.265.547.547,0,0,0,.059.206l.177.236a.5.5,0,0,0,.413.177.556.556,0,0,0,.236-.059l.826-.5a3.064,3.064,0,0,1,1.357-.324Z" transform="translate(444 165)"/>
  </g>
</svg>
