<svg xmlns="http://www.w3.org/2000/svg" viewBox="0 0 18 20">
  <defs>
    <style>
      .cls-1, .cls-2, .cls-5 {
        fill: none;
      }

      .cls-2 {
        stroke: #ff7e82;
        stroke-width: 2px;
      }

      .cls-3, .cls-4 {
        stroke: none;
      }

      .cls-4 {
        fill: #ff7e82;
      }
    </style>
  </defs>
  <g id="Projects" transform="translate(-40.132 -108)">
    <g id="Path_465" data-name="Path 465" class="cls-1" transform="translate(46.131 121)">
      <path class="cls-3" d="M6,2.044V4A3,3,0,0,1,0,4V2.044Z"/>
      <path class="cls-4" d="M 2.000953197479248 4.043942451477051 C 2.024005889892578 4.575058460235596 2.46330714225769 5.000002861022949 3 5.000002861022949 C 3.53669285774231 5.000002861022949 3.975994110107422 4.575058460235596 3.999046802520752 4.043942451477051 L 2.000953197479248 4.043942451477051 M 0 2.043942451477051 L 6 2.043942451477051 L 6 4.000002861022949 C 6 5.656852722167969 4.65684986114502 7.000002861022949 3 7.000002861022949 C 1.34315013885498 7.000002861022949 0 5.656852722167969 0 4.000002861022949 L 0 2.043942451477051 Z"/>
    </g>
    <g id="Path_464" data-name="Path 464" class="cls-1" transform="translate(43.131 119)">
      <path class="cls-3" d="M0,.988H12V3A3,3,0,0,1,9,6H3A3,3,0,0,1,0,3Z"/>
      <path class="cls-4" d="M 2 2.988280773162842 L 2 3.000000715255737 C 2 3.551400661468506 2.448599815368652 4.000000953674316 3 4.000000953674316 L 9 4.000000953674316 C 9.551400184631348 4.000000953674316 10 3.551400661468506 10 3.000000715255737 L 10 2.988280773162842 L 2 2.988280773162842 M 0 0.9882807731628418 L 12 0.9882807731628418 C 12 0.9882807731628418 12 1.343150615692139 12 3.000000715255737 C 12 4.656850814819336 10.65684986114502 6.000000476837158 9 6.000000476837158 L 3 6.000000476837158 C 1.34315013885498 6.000000476837158 0 4.656850814819336 0 3.000000715255737 C 0 1.343150615692139 0 0.9882807731628418 0 0.9882807731628418 Z"/>
    </g>
    <g id="Rectangle_34" data-name="Rectangle 34" class="cls-2" transform="translate(40.131 108)">
      <rect class="cls-3" width="18" height="14" rx="3"/>
      <rect class="cls-5" x="1" y="1" width="16" height="12" rx="2"/>
    </g>
  </g>
</svg>
