<svg xmlns="http://www.w3.org/2000/svg" viewBox="0 0 20.979 20.243">
  <defs>
    <style>
      .cls-1 {
        fill: none;
        stroke: #ff7e82;
        stroke-miterlimit: 10;
        stroke-width: 2px;
      }
    </style>
  </defs>
  <g id="Subscriptions" transform="translate(-537.477 -163.5)">
    <path id="Path_129" data-name="Path 129" class="cls-1" d="M12.008,1.931l1.632,3.311a1.749,1.749,0,0,0,1.248.912l3.647.528a1.643,1.643,0,0,1,.912,2.831l-2.591,2.639a1.72,1.72,0,0,0-.48,1.488L17,17.288a1.7,1.7,0,0,1-2.447,1.776l-3.263-1.728a1.728,1.728,0,0,0-1.536,0L6.489,19.063a1.7,1.7,0,0,1-2.447-1.776l.624-3.647a1.72,1.72,0,0,0-.48-1.488L1.546,9.562A1.656,1.656,0,0,1,2.458,6.73L6.105,6.2A1.749,1.749,0,0,0,7.353,5.29L8.984,1.979A1.7,1.7,0,0,1,12.008,1.931Z" transform="translate(537.466 163.463)"/>
  </g>
</svg>
