<svg xmlns="http://www.w3.org/2000/svg" viewBox="0 0 24.1 22.004">
  <defs>
    <style>
      .cls-1 {
        fill: #ff7e82;
      }
    </style>
  </defs>
  <g id="Users" transform="translate(-715 -162)">
    <path id="Path_124" data-name="Path 124" class="cls-1" d="M20.916,21.9a3.157,3.157,0,0,1-2.982-2.217H6.045a3.1,3.1,0,0,1-2.9,2.015,3.143,3.143,0,0,1,0-6.287,2.661,2.661,0,0,1,.564.04L9.632,5.179a3.322,3.322,0,0,1-.846-2.136A3.147,3.147,0,0,1,11.929-.1a3.113,3.113,0,0,1,3.1,3.143,2.917,2.917,0,0,1-.846,2.136L20.271,15.7a3.549,3.549,0,0,1,.685-.081A3.147,3.147,0,0,1,24.1,18.761,3.182,3.182,0,0,1,20.916,21.9Zm0-4.433a1.29,1.29,0,1,0,1.29,1.29A1.249,1.249,0,0,0,20.916,17.471Zm-17.773-.2a1.29,1.29,0,0,0,0,2.579,1.29,1.29,0,0,0,0-2.579Zm14.79.6a2.832,2.832,0,0,1,.725-1.249L12.614,6.106a4.441,4.441,0,0,1-.725.081,3.615,3.615,0,0,1-.725-.081L5.32,16.343a3.136,3.136,0,0,1,.887,1.531ZM11.889,1.754a1.273,1.273,0,0,0-1.29,1.29,1.29,1.29,0,0,0,2.579,0A1.273,1.273,0,0,0,11.889,1.754Z" transform="translate(714.999 162.1)"/>
  </g>
</svg>
